<svg width="115" height="26" viewBox="0 0 115 26" fill="none" xmlns="http://www.w3.org/2000/svg">
<g clip-path="url(#clip0_147_378)">
<path d="M25.4449 24.6765H0.628174V0.369844H25.4449V24.6765Z" fill="#C5C5C5"/>
<path d="M17.6266 4.48197C20.3672 5.82635 19.0907 19.0865 19.0907 19.0865L15.7194 18.7616C15.7194 18.7616 17.0131 10.7196 14.9625 9.64283C13.4072 8.55736 6.95051 14.2859 6.95051 14.2859L4.98999 11.9172C10.7437 6.45467 15.7761 3.54058 17.6266 4.48197Z" fill="#292929"/>
<path d="M46.8048 24.5561V21.7612H46.7406C46.0932 22.8662 45.2241 23.6841 44.1343 24.2149C43.0445 24.7457 41.8846 25.0111 40.6546 25.0111C39.144 25.0111 37.7952 24.7457 36.6084 24.2149C35.4215 23.6841 34.4234 22.9799 33.6147 22.1024C32.8055 21.225 32.1899 20.2229 31.7691 19.0963C31.3483 17.9702 31.1384 16.8105 31.1384 15.6188C31.1384 14.5139 31.3321 13.3981 31.7205 12.2714C32.109 11.1448 32.697 10.1216 33.4847 9.20026C34.2723 8.27945 35.2596 7.52656 36.4465 6.94157C37.6334 6.35659 39.0366 6.06409 40.6546 6.06409C41.9062 6.06409 43.0715 6.31867 44.151 6.82782C45.2295 7.33698 46.0932 8.09042 46.7406 9.08652H46.8048V6.55158H50.1712V24.5561H46.8048ZM46.8695 15.5863C46.8695 14.633 46.7082 13.7615 46.384 12.9702C46.0608 12.1794 45.6184 11.5028 45.0568 10.939C44.4952 10.3757 43.8376 9.93691 43.0828 9.62275C42.327 9.30914 41.5172 9.15151 40.6546 9.15151C39.6187 9.15151 38.7178 9.35193 37.9517 9.75275C37.1862 10.1541 36.5436 10.6681 36.0257 11.2965C35.5078 11.9253 35.1247 12.6181 34.8771 13.3764C34.6284 14.1347 34.5043 14.8714 34.5043 15.5863C34.5043 16.388 34.6554 17.1739 34.9575 17.9425C35.2596 18.7117 35.6804 19.3888 36.2199 19.9737C36.7594 20.5587 37.4068 21.03 38.1626 21.3875C38.9174 21.7449 39.7374 21.9237 40.6222 21.9237C41.507 21.9237 42.327 21.7558 43.0828 21.42C43.8376 21.0841 44.4952 20.6291 45.0568 20.055C45.6184 19.4808 46.0608 18.8092 46.384 18.04C46.7082 17.2714 46.8695 16.453 46.8695 15.5863Z" fill="white"/>
<path d="M54.7803 24.5562V6.55161H57.9201V8.17657H57.9849C58.3517 7.67825 58.7509 7.28826 59.1825 7.0066C59.6141 6.72548 60.0457 6.51424 60.4773 6.37287C60.9089 6.23204 61.3081 6.14538 61.675 6.11288C62.0419 6.08038 62.3326 6.06413 62.549 6.06413V9.54154C62.29 9.54154 61.9232 9.5957 61.4484 9.70403C60.9737 9.81291 60.5307 9.97486 60.1213 10.1915C59.5818 10.4948 59.1178 10.9991 58.7288 11.7027C58.3409 12.4069 58.1467 13.4089 58.1467 14.7089V24.5562H54.7803Z" fill="white"/>
<path d="M70.395 4.47107H67.0286V0.506168H70.395V4.47107Z" fill="#C5C5C5" stroke="#7D8B0B" stroke-width="0.0817883"/>
<path d="M70.395 24.5566H67.0286V6.5521H70.395V24.5566Z" fill="white"/>
<path d="M83.1339 11.329C83.0255 10.5929 82.7719 10.0452 82.3727 9.68775C81.9735 9.33026 81.4615 9.15151 80.8357 9.15151C80.2093 9.15151 79.7022 9.33026 79.3143 9.68775C78.9259 10.0452 78.7316 10.5056 78.7316 11.069C78.7316 11.4378 78.8066 11.7466 78.9582 11.9952C79.1087 12.2449 79.3143 12.4561 79.5733 12.6289C79.8322 12.8028 80.1284 12.949 80.4634 13.0677C80.7974 13.1868 81.148 13.3011 81.5154 13.4089C81.8602 13.5172 82.3349 13.6803 82.9397 13.8964C83.5434 14.1131 84.1422 14.444 84.7362 14.8876C85.3291 15.3323 85.8416 15.9005 86.2732 16.5938C86.7048 17.2877 86.9206 18.1755 86.9206 19.2588C86.9206 20.0604 86.7857 20.8079 86.5165 21.5012C86.2463 22.1951 85.8524 22.8012 85.335 23.3212C84.8166 23.8411 84.1859 24.2528 83.4414 24.5561C82.6969 24.8594 81.8499 25.0111 80.8999 25.0111C80.3388 25.0111 79.6919 24.9082 78.9582 24.7024C78.2245 24.4965 77.5334 24.1499 76.886 23.6624C76.2386 23.1749 75.6889 22.5249 75.2352 21.7124C74.782 20.9 74.5554 19.8762 74.5554 18.6413H77.9219C77.9866 19.6601 78.2725 20.4612 78.7802 21.0462C79.2868 21.6312 80.0151 21.9237 80.9646 21.9237C81.7199 21.9237 82.3403 21.7016 82.8264 21.2575C83.3119 20.8138 83.5547 20.2126 83.5547 19.4538C83.5547 19.0638 83.4738 18.7279 83.3119 18.4463C83.1496 18.1652 82.9284 17.9214 82.6478 17.715C82.3673 17.5092 82.0328 17.3251 81.6449 17.1626C81.2565 17.0001 80.8459 16.8435 80.4149 16.6913C79.9401 16.5185 79.406 16.3176 78.8126 16.0901C78.2186 15.8626 77.6688 15.5484 77.1617 15.1476C76.6546 14.7468 76.2279 14.2376 75.8831 13.6201C75.5373 13.0027 75.3647 12.2173 75.3647 11.264C75.3647 10.5929 75.4995 9.94774 75.7693 9.33026C76.039 8.71278 76.4172 8.16029 76.9028 7.6728C77.3878 7.18531 77.9812 6.79533 78.6825 6.50283C79.3839 6.21034 80.1559 6.06409 80.9975 6.06409C81.5154 6.06409 82.0868 6.1513 82.7131 6.32409C83.3389 6.49796 83.927 6.79045 84.4767 7.20156C85.0275 7.61322 85.4969 8.15541 85.8848 8.82652C86.2732 9.49817 86.4782 10.3329 86.4998 11.329H83.1339Z" fill="white"/>
<path d="M103.68 24.5562V14.7739C103.68 14.4278 103.658 13.9398 103.615 13.3114C103.572 12.6831 103.41 12.0602 103.13 11.4427C102.849 10.8253 102.406 10.289 101.803 9.83403C101.198 9.37904 100.335 9.15155 99.213 9.15155C97.7893 9.15155 96.6445 9.6282 95.7818 10.5815C94.9186 11.5354 94.487 12.9215 94.487 14.7414V24.5562H91.1206V0.506769H94.487V8.46906H94.5518C94.9613 7.86296 95.4204 7.3966 95.9275 7.0716C96.4346 6.74661 96.9256 6.50828 97.4003 6.35662C97.8751 6.20496 98.3121 6.11829 98.7113 6.09663C99.1105 6.0755 99.3959 6.06413 99.5691 6.06413C100.972 6.06413 102.218 6.34579 103.308 6.90911C104.397 7.47297 105.267 8.26324 105.914 9.28154C106.28 9.86653 106.556 10.5273 106.739 11.264C106.922 12.0006 107.025 12.8781 107.046 13.8964V24.5562H103.68Z" fill="white"/>
<path d="M114.922 4.47107H111.556V0.506168H114.922V4.47107Z" fill="white"/>
<path d="M114.922 24.5566H111.556V6.5521H114.922V24.5566Z" fill="white"/>
<path d="M9.0805 16.1514L6.74341 20.7311" stroke="#292929" stroke-width="0.673181" stroke-miterlimit="10" stroke-linecap="round" stroke-linejoin="round"/>
<path d="M11.1894 17.2364L8.85229 21.816" stroke="#292929" stroke-width="0.673181" stroke-miterlimit="10" stroke-linecap="round" stroke-linejoin="round"/>
<path d="M13.2946 18.321L10.9575 22.9006" stroke="#292929" stroke-width="0.673181" stroke-miterlimit="10" stroke-linecap="round" stroke-linejoin="round"/>
</g>
<defs>
<clipPath id="clip0_147_378">
<rect width="114.294" height="24.6414" fill="white" transform="translate(0.628174 0.369751)"/>
</clipPath>
</defs>
</svg>
