<svg width="89" height="39" viewBox="0 0 89 39" fill="none" xmlns="http://www.w3.org/2000/svg">
<path d="M50.5049 4.80381C50.5049 4.47922 50.5049 3.83006 50.5049 3.5704C50.8295 3.5704 51.7384 3.5704 51.998 3.5704C51.998 3.83006 51.998 3.95989 51.998 4.15464C51.998 7.27062 51.998 10.3866 51.998 13.5026C51.5436 13.5026 50.8944 13.5026 50.5049 13.5026C50.5049 13.1131 50.5049 12.7236 50.5049 12.399C47.4539 14.3465 44.2081 14.0868 42.4553 11.8148C40.9623 9.86728 41.0921 6.81621 42.715 5.06347C44.5976 2.98615 48.3627 2.7914 50.5049 4.80381ZM46.8047 4.93364C44.6625 4.93364 43.0396 6.42671 43.0396 8.50403C42.9747 10.5814 44.6625 12.2692 46.7398 12.2692C48.8171 12.2692 50.44 10.7112 50.44 8.63386C50.44 6.49163 48.947 4.93364 46.8047 4.93364Z" fill="#292929"/>
<path d="M8.30928 13.5026C6.42671 13.5026 7.33554 13.5026 6.3618 13.5026C5.51788 12.3341 3.50548 9.67253 2.98615 9.02337C2.53173 9.02337 2.14224 9.02337 1.49307 9.02337C1.49307 10.3866 1.49307 12.0095 1.49307 13.5026C0.908828 13.5026 0.454414 13.5026 0 13.5026C0 9.08828 0 4.60906 0 0C0.454414 0 0.908828 0 1.49307 0C1.49307 2.53174 1.49307 5.1933 1.49307 7.59521C2.20715 7.59521 2.59665 7.59521 2.98615 7.59521C4.73889 5.32314 5.38805 4.54414 6.16705 3.50548C7.20571 3.50548 6.75129 3.50548 7.9847 3.50548C6.81621 5.06347 5.45297 6.68638 4.28447 8.30928C5.51788 9.99711 6.94604 11.7498 8.30928 13.5026Z" fill="#292929"/>
<path d="M31.874 13.5022C31.2897 13.5022 30.9002 13.5022 30.316 13.5022C30.316 12.5284 30.316 11.5547 30.316 10.5809C30.316 9.80193 30.316 8.95802 30.316 8.17902C30.2511 5.90695 29.3422 4.80338 27.6544 4.73846C25.8368 4.73846 24.6034 6.1017 24.5384 8.24394C24.5384 9.54227 24.5384 10.8406 24.5384 12.1389C24.5384 12.5284 24.5384 12.9828 24.5384 13.4372C23.9542 13.4372 23.4998 13.4372 22.9155 13.4372C22.9155 10.2563 22.9155 3.56997 22.9155 3.50505C23.1103 3.50505 24.0191 3.50505 24.3437 3.50505C24.3437 3.82963 24.3437 4.41388 24.3437 4.54371C25.3174 3.6998 26.0964 3.3103 27.5895 3.3103C30.0563 3.3103 31.6143 4.54371 31.874 6.94561C31.9389 7.46494 31.9389 8.04919 31.9389 8.56852C31.874 10.1914 31.874 11.8143 31.874 13.5022Z" fill="#292929"/>
<path d="M35.1847 5.06338C34.3408 5.06338 33.8864 5.06338 33.1074 5.06338C34.2759 3.82997 35.7041 2.3369 36.9375 1.03857C36.9375 1.9474 36.9375 2.79131 36.9375 3.50539C37.9112 3.50539 38.8201 3.50539 39.8587 3.50539C39.8587 4.02472 39.8587 4.54405 39.8587 5.06338C38.8201 5.06338 37.9761 5.06338 36.9375 5.06338C36.9375 7.1407 36.9375 8.69869 36.9375 10.5813C36.9375 11.1655 37.6516 12.0743 38.5604 12.0743C38.9499 12.0743 39.4043 12.0743 39.9885 12.0743C39.9885 12.5288 39.9885 13.0481 39.9885 13.4376C36.8726 13.9569 35.2497 12.6586 35.2497 9.54261C35.1847 8.04953 35.1847 6.62137 35.1847 5.06338Z" fill="#292929"/>
<path d="M56.931 13.5025C56.4766 13.5025 55.9573 13.5025 55.373 13.5025C55.373 11.0356 55.373 8.69866 55.373 6.29676C55.373 5.71251 55.373 3.89485 55.373 3.57027C55.8275 3.57027 56.7363 3.57027 56.7363 3.57027C56.7363 3.57027 56.7363 4.67385 56.7363 4.60893C58.4241 3.24569 59.9821 3.50536 60.8909 3.50536C60.8909 3.82994 60.8909 4.41418 60.8909 4.99843C57.9697 4.8686 56.996 6.29676 56.931 8.50391C56.931 10.0619 56.931 11.6199 56.8661 13.1779C56.931 13.2428 56.931 13.2428 56.931 13.5025Z" fill="#292929"/>
<path d="M31.8742 27.9143C31.1601 27.9143 30.5759 27.9143 30.3162 27.9143C30.3162 27.5897 30.3162 27.0703 30.3162 26.8107C27.9792 28.5634 24.5387 28.5634 22.6561 26.3563C21.0332 24.4737 21.0332 21.4875 22.5912 19.605C24.4088 17.4627 27.2651 17.2031 30.3162 19.0207C30.3162 17.5277 30.3162 16.0346 30.3162 14.5415C30.9005 14.5415 31.3549 14.5415 31.8742 14.5415C31.8742 18.9558 31.8742 23.5 31.8742 27.9143ZM26.6809 19.3453C24.5387 19.3453 23.0456 20.9033 23.0456 23.0455C23.0456 25.1229 24.6685 26.7458 26.7458 26.7458C28.8231 26.7458 30.511 25.0579 30.446 22.9806C30.3811 20.7735 28.8231 19.2804 26.6809 19.3453Z" fill="#292929"/>
<path d="M70.3688 22.9157C70.3688 25.837 68.0967 28.174 65.0457 28.174C62.0595 28.174 59.7225 25.9668 59.6576 22.9807C59.5927 19.9945 61.8648 17.7874 64.9807 17.7874C68.0318 17.7874 70.3039 19.9296 70.3688 22.9157ZM64.9807 19.3453C62.8385 19.3453 61.2805 20.8384 61.2805 22.9807C61.2805 25.1229 62.8385 26.7458 64.9807 26.7458C67.123 26.7458 68.681 25.1229 68.681 22.9807C68.681 20.7735 67.123 19.3453 64.9807 19.3453Z" fill="#292929"/>
<path d="M50.1802 25.058C50.7644 25.058 51.089 25.058 51.6083 25.058C51.6733 25.2527 51.8031 25.5124 51.868 25.7071C52.5172 26.9405 54.984 27.1353 56.0226 26.1615C56.7367 25.4474 56.6069 24.4088 55.6331 24.0193C54.9191 23.7596 54.0752 23.6298 53.2962 23.435C52.7119 23.2403 52.0628 23.1105 51.5434 22.8508C50.31 22.2016 49.9205 20.7086 50.5048 19.4752C51.1539 18.1768 52.9067 17.5277 54.984 17.8522C56.6069 18.1119 57.5157 18.9558 57.7754 20.6436C57.1911 20.6436 56.8666 20.6436 56.4771 20.6436C56.4121 20.5138 56.3472 20.384 56.2174 20.1892C55.5682 19.0207 53.2312 18.7611 52.1926 19.605C51.4785 20.1892 51.6083 21.163 52.5172 21.5525C53.1663 21.8121 53.8804 21.942 54.5945 22.0718C55.1787 22.2016 55.763 22.2666 56.2823 22.4613C57.7105 22.9806 58.2947 24.279 57.9701 25.7071C57.5806 27.2651 55.6981 28.3038 53.5558 28.109C51.5434 27.9792 50.31 26.8756 50.1802 25.058Z" fill="#292929"/>
<path d="M78.5488 17.9819C79.198 17.9819 79.5875 17.9819 80.3016 17.9819C81.2104 20.1242 82.7684 23.3051 83.872 25.5771C84.8457 23.3051 86.4037 20.1242 87.2476 17.9819C87.8968 17.9819 88.481 17.9819 89.0004 17.9819C87.4424 21.4225 85.6247 25.4473 84.0018 28.823C82.8333 31.1599 81.9245 31.6793 79.3927 31.4845C79.3927 31.095 79.3278 30.7055 79.2629 30.1862C80.8858 30.316 82.1192 29.7967 82.6386 28.3036C82.8333 27.7194 82.8982 27.0053 82.6386 26.486C81.3402 23.6296 79.9121 20.7733 78.5488 17.9819Z" fill="#292929"/>
<path d="M35.4437 17.9817C36.3525 20.2537 37.7807 23.5645 38.8843 25.9664C39.9229 23.5645 41.3511 20.2537 42.195 17.9817C42.8442 17.9817 42.6494 17.9817 43.8828 17.9817C43.4933 18.9554 43.0389 20.1239 42.5845 21.0976C41.6757 23.175 40.5721 25.8365 39.5984 27.8489C39.3387 27.8489 38.3 27.8489 38.1702 27.8489C36.8069 24.9277 35.0542 20.9029 33.8208 17.9167C34.0805 17.9817 34.0805 17.9817 35.4437 17.9817Z" fill="#292929"/>
<path d="M47.454 27.9141C46.9347 27.9141 46.4803 27.8492 46.0259 27.8492C46.0259 24.5385 46.0259 21.3576 46.0259 17.9819C46.4803 17.9819 46.9347 17.9819 47.454 17.9819C47.454 21.2277 47.454 24.4736 47.454 27.9141Z" fill="#292929"/>
<path d="M45.896 16.1642C45.896 15.6449 45.896 15.1904 45.896 14.6062C46.4153 14.6062 46.8697 14.6062 47.454 14.6062C47.454 15.1255 47.454 15.5799 47.454 16.1642C46.9996 16.1642 46.4802 16.1642 45.896 16.1642Z" fill="#292929"/>
<path d="M17.9825 4.80381C17.9825 4.47922 17.9825 3.83006 17.9825 3.5704C18.3071 3.5704 19.2159 3.5704 19.4756 3.5704C19.4756 3.83006 19.4756 3.95989 19.4756 4.15464C19.4756 7.27062 19.4756 10.3866 19.4756 13.5026C19.0211 13.5026 18.372 13.5026 17.9825 13.5026C17.9825 13.1131 17.9825 12.7236 17.9825 12.399C14.9314 14.3465 11.6856 14.0868 9.93287 11.8148C8.4398 9.86728 8.56963 6.81621 10.1925 5.06347C12.0751 2.98615 15.7753 2.7914 17.9825 4.80381ZM14.2173 4.93364C12.0751 4.93364 10.4522 6.42671 10.4522 8.50403C10.3873 10.5814 12.0751 12.2692 14.1524 12.2692C16.2297 12.2692 17.8527 10.7112 17.8527 8.63386C17.9176 6.49163 16.3596 4.93364 14.2173 4.93364Z" fill="#292929"/>
<path d="M17.9171 19.2152C17.9171 18.8907 17.9171 18.2415 17.9171 17.9818C18.2416 17.9818 19.1505 17.9818 19.4101 17.9818C19.4101 18.2415 19.4101 18.3713 19.4101 18.5661C19.4101 21.6821 19.4101 24.798 19.4101 27.914C18.9557 27.914 18.3066 27.914 17.9171 27.914C17.9171 27.5245 17.9171 27.135 17.9171 26.8104C14.866 28.7579 11.6202 28.4983 9.86744 26.2262C8.37436 24.2787 8.5042 21.2276 10.1271 19.4749C12.0097 17.3976 15.7748 17.1379 17.9171 19.2152ZM14.2168 19.2801C12.0746 19.2801 10.4517 20.7732 10.4517 22.8505C10.3868 24.9279 12.0746 26.6157 14.1519 26.6157C16.2292 26.6157 17.8521 25.0577 17.8521 22.9804C17.8521 20.9031 16.2942 19.3451 14.2168 19.2801Z" fill="#292929"/>
<path d="M2.9213 7.59546H1.42822V9.02362H2.9213V7.59546Z" fill="#292929"/>
<path d="M74.1342 27.9138C73.6798 27.9138 73.1604 27.9138 72.5762 27.9138C72.5762 25.447 72.5762 23.11 72.5762 20.7081C72.5762 20.1239 72.5762 18.3062 72.5762 17.9816C73.0306 17.9816 73.9394 17.9816 73.9394 17.9816C73.9394 17.9816 73.9394 19.0852 73.9394 19.0203C75.6272 17.6571 77.1852 17.9167 78.0941 17.9167C78.0941 18.2413 78.0941 18.8256 78.0941 19.4098C75.1728 19.28 74.1991 20.7081 74.1342 22.9153C74.1342 24.4733 74.1342 26.0313 74.0692 27.5893C74.1342 27.6542 74.1342 27.6542 74.1342 27.9138Z" fill="#292929"/>
<path d="M33.4967 30.7706C34.7301 29.667 36.8074 29.7319 37.911 30.9004C38.8847 31.9391 38.9497 33.6918 38.1057 34.8603C37.0671 36.2236 34.6003 36.3534 33.4967 35.3147C33.4967 36.2236 33.4967 37.0675 33.4967 38.0412C33.1072 38.0412 32.8475 38.0412 32.5229 38.0412C32.5229 37.7167 32.5229 37.457 32.5229 37.1973C32.5229 35.12 32.5229 30.446 32.5229 30.1214C32.7826 30.1214 33.237 30.1214 33.4967 30.1214C33.4967 30.1864 33.4967 30.7057 33.4967 30.7706ZM35.574 30.9004C34.3406 30.9004 33.4318 31.8093 33.4318 33.0427C33.4318 34.2761 34.4055 35.2498 35.6389 35.2498C36.8723 35.2498 37.7812 34.2761 37.7812 33.0427C37.7163 31.7444 36.8723 30.9004 35.574 30.9004Z" fill="#43AF49"/>
<path d="M64.007 33.3668C64.1368 34.2756 64.5912 34.795 65.3053 35.0546C66.0843 35.3143 67.1879 35.2494 67.9669 34.0809C68.2265 34.0809 68.5511 34.0809 68.8757 34.0809C68.4862 35.1845 67.5773 35.8336 66.5387 36.0284C65.3702 36.2231 64.3965 35.8336 63.6824 34.8599C62.9034 33.8861 62.8385 32.3281 63.5525 31.2246C64.2666 30.1859 65.5649 29.6666 66.8633 30.0561C68.0318 30.3807 68.8757 31.3544 69.0055 32.7176C69.0055 32.9124 69.0704 33.237 69.0055 33.3668C69.0704 33.3668 65.5649 33.3668 64.007 33.3668ZM64.0719 32.458C65.4351 32.458 66.6685 32.458 67.9669 32.458C67.837 31.4193 67.1229 30.8351 66.0843 30.8351C65.0456 30.8351 64.2666 31.4193 64.0719 32.458Z" fill="#43AF49"/>
<path d="M78.7434 31.6795C78.2889 31.8093 78.0293 31.8093 77.7696 31.3549C77.445 30.7058 75.952 30.5759 75.4326 31.1602C75.0431 31.5497 75.173 32.069 75.7572 32.2637C76.4064 32.4585 77.0555 32.5234 77.7047 32.7182C78.6135 32.9778 79.003 33.627 78.8732 34.5358C78.8732 34.6656 78.8083 34.7955 78.7434 34.9902C78.4188 35.7692 77.2503 36.2236 76.0818 36.0289C74.9782 35.8341 74.3291 35.2499 74.1992 34.2112C74.6536 34.0814 74.9782 34.0814 75.2379 34.6007C75.6274 35.3148 77.0555 35.3797 77.6398 34.8604C78.0942 34.4709 78.0293 33.8217 77.445 33.627C77.0555 33.4322 76.6011 33.4322 76.1467 33.3024C75.8221 33.2375 75.4326 33.1077 75.1081 32.9778C74.3291 32.6532 74.0694 31.8093 74.394 31.0303C74.8484 30.1215 75.6923 29.9268 76.6011 29.9268C77.6398 29.9268 78.3539 30.3812 78.6135 31.0952C78.6784 31.3549 78.6784 31.4847 78.7434 31.6795Z" fill="#43AF49"/>
<path d="M44.9214 30.8348C44.9214 30.6401 44.9214 30.2506 44.9214 30.1208C45.1162 30.1208 45.6355 30.1208 45.8303 30.1208C45.8303 30.2506 45.8303 30.3155 45.8303 30.4453C45.8303 32.263 45.8303 34.0806 45.8303 35.8983C45.5706 35.8983 45.1811 35.8983 44.9214 35.8983C44.9214 35.6386 44.9214 35.4439 44.9214 35.2491C43.1687 36.4176 41.2212 36.2229 40.2475 34.9246C39.4035 33.7561 39.4035 32.0033 40.3773 30.9647C41.4809 29.7313 43.688 29.6663 44.9214 30.8348ZM42.7792 30.8998C41.5458 30.8998 40.572 31.7437 40.572 32.9771C40.572 34.2105 41.5458 35.1842 42.7792 35.1842C44.0126 35.1842 44.9214 34.2754 44.9214 33.042C44.9214 31.8086 44.0126 30.8998 42.7792 30.8998Z" fill="#43AF49"/>
<path d="M48.6871 35.8986C48.4275 35.8986 48.1029 35.8986 47.7783 35.8986C47.7783 34.4705 47.7783 33.1072 47.7783 31.6791C47.7783 31.3545 47.7783 30.3158 47.7783 30.0562C48.038 30.0562 48.5573 30.0562 48.5573 30.0562C48.5573 30.0562 48.5573 30.7053 48.5573 30.6404C49.5311 29.8614 50.4399 29.9913 50.9592 29.9913C50.9592 30.186 50.9592 30.5106 50.9592 30.9001C49.2714 30.8352 48.6871 31.6142 48.6871 32.9125C48.6871 33.8213 48.6871 34.7302 48.6871 35.639C48.6871 35.7688 48.6871 35.7688 48.6871 35.8986Z" fill="#43AF49"/>
<path d="M52.4517 31.0301C51.9973 31.0301 51.6727 31.0301 51.2183 31.0301C51.9323 30.316 52.7762 29.4072 53.4254 28.6931C53.4254 29.2124 53.4254 29.7318 53.4254 30.1213C54.0097 30.1213 54.529 30.1213 55.1781 30.1213C55.1781 30.4459 55.1781 30.7055 55.1781 31.0301C54.5939 31.0301 54.0746 31.0301 53.4254 31.0301C53.4254 32.1986 53.4254 33.1723 53.4254 34.2759C53.4254 34.6654 53.8149 35.1198 54.3342 35.1198C54.5939 35.1198 54.8536 35.1198 55.1781 35.1198C55.1781 35.3795 55.1781 35.7041 55.1781 35.8988C53.3605 36.2234 52.3868 35.4444 52.3868 33.6268C52.4517 32.7828 52.4517 31.9389 52.4517 31.0301Z" fill="#43AF49"/>
<path d="M61.7353 35.8984C61.4107 35.8984 61.151 35.8984 60.8264 35.8984C60.8264 35.3141 60.8264 34.7948 60.8264 34.2106C60.8264 33.7561 60.8264 33.3017 60.8264 32.8473C60.8264 31.549 60.2422 30.8998 59.2685 30.8349C58.2298 30.8349 57.4508 31.6139 57.4508 32.9122C57.4508 33.6912 57.4508 34.4053 57.4508 35.1843C57.4508 35.444 57.4508 35.6387 57.4508 35.8984C57.1262 35.8984 56.8665 35.8984 56.4771 35.8984C56.4771 34.0807 56.4771 30.1857 56.4771 30.1208C56.6069 30.1208 57.1262 30.1208 57.321 30.1208C57.321 30.3156 57.321 30.6402 57.321 30.77C57.8403 30.3156 58.3596 30.0559 59.2035 30.0559C60.6317 30.0559 61.5405 30.77 61.6704 32.1332C61.7353 32.4578 61.6704 32.7824 61.6704 33.107C61.7353 33.9509 61.7353 34.9246 61.7353 35.8984Z" fill="#43AF49"/>
<path d="M71.3429 35.8987C71.0833 35.8987 70.7587 35.8987 70.4341 35.8987C70.4341 34.4705 70.4341 33.1073 70.4341 31.7441C70.4341 31.4195 70.4341 30.3808 70.4341 30.1861C70.6937 30.1861 71.2131 30.1861 71.2131 30.1861C71.2131 30.1861 71.2131 30.8352 71.2131 30.7703C72.1868 29.9913 73.0957 30.1212 73.615 30.1212C73.615 30.3159 73.615 30.6405 73.615 30.9651C71.9272 30.9001 71.3429 31.6791 71.3429 32.9775C71.3429 33.8863 71.3429 34.7951 71.3429 35.639C71.3429 35.704 71.3429 35.704 71.3429 35.8987Z" fill="#43AF49"/>
</svg>
